<svg xmlns="http://www.w3.org/2000/svg" viewBox="0 0 50 50">
    <path d="M 18.460938 3 C 18.100938 3.01 17.769375 3.2307813 17.609375 3.5507812 L 16.730469 5.3105469 L 15.710938 4.2890625 C 15.440938 4.0290625 15.049453 3.9307813 14.689453 4.0507812 C 14.329453 4.1707812 14.069766 4.4796094 14.009766 4.8496094 L 12.060547 17.529297 C 11.660547 17.959297 11 18.86 11 20 L 11 20.417969 C 9.763 21.755969 9 23.538 9 25.5 C 9 27.663 9.9361094 29.593125 11.412109 30.953125 C 11.378109 31.070125 11.3375 31.187734 11.3125 31.302734 C 11.1045 31.958734 10.853906 32.494469 10.628906 32.980469 C 10.296906 33.693469 10.011719 34.311 10.011719 35 C 10.011719 37.34 13.693625 38.990156 17.015625 39.660156 C 17.081625 39.661156 19.194719 40 20.011719 40 C 23.076719 40 25.020922 39.741906 26.169922 39.503906 C 25.940922 39.119906 25.973688 38.623969 26.304688 38.292969 C 26.695687 37.901969 27.32775 37.901969 27.71875 38.292969 L 29.71875 40.292969 C 30.10975 40.683969 30.10975 41.316031 29.71875 41.707031 C 29.52275 41.902031 29.267719 42 29.011719 42 C 28.755719 42 28.499688 41.902031 28.304688 41.707031 L 27.759766 41.162109 C 26.706766 41.496109 24.400719 42 20.011719 42 C 19.444719 42 18.818016 41.947422 18.166016 41.857422 C 18.502016 42.902422 19.375703 43.999844 20.970703 43.964844 C 20.983703 43.981844 21.001719 44.028359 21.011719 44.068359 L 21 45.994141 C 20.999 46.260141 21.104016 46.517078 21.291016 46.705078 C 21.479016 46.894078 21.734 47 22 47 L 28 47 C 32.327 47 33.514391 45.952859 33.775391 45.630859 C 33.920391 45.452859 34 45.229 34 45 C 34 41.056831 34.778799 38.792761 34.890625 38.488281 C 35.499658 38.464005 36.183498 38.360225 36.810547 37.900391 C 37.574513 37.340149 38 36.310185 38 35 C 38 34.215278 37.699272 33.510879 37.251953 33.044922 C 36.905432 32.683961 36.506498 32.481655 36.117188 32.332031 C 36.397563 30.513308 37.648515 23.334048 41.949219 10.310547 C 42.069219 9.9405469 41.969453 9.5395312 41.689453 9.2695312 C 41.399453 8.9995313 40.990859 8.9303125 40.630859 9.0703125 L 39.240234 9.6191406 L 38.980469 8.3007812 C 38.910469 7.9707812 38.679375 7.6903125 38.359375 7.5703125 C 38.039375 7.4403125 37.680391 7.4892187 37.400391 7.6992188 L 36.720703 8.2109375 L 36.490234 6.8398438 C 36.430234 6.5098437 36.219922 6.2298438 35.919922 6.0898438 C 35.619922 5.9498438 35.270234 5.970625 34.990234 6.140625 L 33.75 6.890625 L 33.490234 5.3398438 C 33.430234 4.9898438 33.189375 4.6903125 32.859375 4.5703125 C 32.529375 4.4403125 32.150859 4.5007031 31.880859 4.7207031 L 30.5 5.8203125 L 29.949219 4.1796875 C 29.839219 3.8496875 29.570469 3.6092969 29.230469 3.5292969 C 28.890469 3.4492969 28.539062 3.5490625 28.289062 3.7890625 L 27.199219 4.890625 L 26.359375 3.4902344 C 26.189375 3.2002344 25.890312 3.02 25.570312 3 C 25.240313 2.99 24.920703 3.1208594 24.720703 3.3808594 L 23.619141 4.75 L 22.859375 3.4902344 C 22.689375 3.2002344 22.390312 3.02 22.070312 3 C 21.740313 2.99 21.420703 3.1208594 21.220703 3.3808594 L 20.119141 4.75 L 19.359375 3.4902344 C 19.169375 3.1702344 18.850937 2.99 18.460938 3 z M 16.5 20 C 17.927 20 19.218312 20.555172 20.195312 21.451172 C 19.442312 22.620172 19 24.008 19 25.5 C 19 26.761 19.315187 27.948187 19.867188 28.992188 C 19.866187 28.994187 19.865281 28.998 19.863281 29 L 16.556641 29 C 15.698641 29 15 29.673 15 30.5 C 15 31.327 15.697641 32 16.556641 32 L 18.431641 32 C 18.983641 32 19.431641 32.448 19.431641 33 C 19.431641 33.552 18.983641 34 18.431641 34 L 16.556641 34 C 14.595641 34 13 32.43 13 30.5 C 13 30.254 13.026172 30.01325 13.076172 29.78125 C 12.937172 29.67025 12.808641 29.549781 12.681641 29.425781 C 12.634641 29.380781 12.587969 29.334109 12.542969 29.287109 C 12.428969 29.168109 12.319797 29.045016 12.216797 28.916016 C 12.195797 28.890016 12.174297 28.865844 12.154297 28.839844 C 11.895297 28.503844 11.672141 28.137047 11.494141 27.748047 C 11.492141 27.748047 11.490281 27.749 11.488281 27.75 C 11.175281 27.064 11 26.303 11 25.5 C 11 22.467 13.467 20 16.5 20 z M 26.5 20 C 29.533 20 32 22.467 32 25.5 C 32 28.533 29.533 31 26.5 31 C 23.467 31 21 28.533 21 25.5 C 21 22.467 23.467 20 26.5 20 z M 16 25 A 1 1 0 0 0 15 26 A 1 1 0 0 0 16 27 A 1 1 0 0 0 17 26 A 1 1 0 0 0 16 25 z M 26 26 A 1 1 0 0 0 25 27 A 1 1 0 0 0 26 28 A 1 1 0 0 0 27 27 A 1 1 0 0 0 26 26 z M 34.611328 34.013672 C 34.801634 34.02982 35.013272 34.056688 35.220703 34.117188 C 35.485111 34.194308 35.695366 34.311661 35.810547 34.431641 C 35.925728 34.551621 36 34.659722 36 35 C 36 35.939815 35.800487 36.159851 35.626953 36.287109 C 35.453419 36.414368 35.058333 36.5 34.5 36.5 C 34.353342 36.5 33.989653 36.3481 33.753906 36.246094 C 32.843977 35.842463 32.416245 34.117961 34.611328 34.013672 z"></path>
</svg>
